<svg xmlns="http://www.w3.org/2000/svg" xmlns:xlink="http://www.w3.org/1999/xlink"><symbol id="icon-arrow"><g fill="currentColor"><path fill-rule="evenodd" clip-rule="evenodd" d="M7.135 2.865a.665.665 0 1 0-.94.94l4.201 4.201-4.201 4.202a.665.665 0 0 0 .94.94l4.669-4.668.003-.003c.26-.26.26-.681 0-.94L7.135 2.864Z"/></g></symbol><symbol id="icon-card"><g fill="currentColor"><path d="M1.167.108a.667.667 0 1 0 0 1.333h1.77l.468 2.336a.664.664 0 0 0 .011.053l.967 4.833a1.826 1.826 0 0 0 1.819 1.47h5.62a1.826 1.826 0 0 0 1.819-1.47l.001-.005.927-4.861a.667.667 0 0 0-.655-.792H4.611L4.138.644a.667.667 0 0 0-.654-.536H1.167ZM5.69 8.402l-.813-4.064h8.23l-.775 4.067a.492.492 0 0 1-.492.395H6.183a.492.492 0 0 1-.492-.397Zm-1.134 3.961a1.246 1.246 0 1 1 2.492 0 1.246 1.246 0 0 1-2.492 0Zm6.374 0a1.246 1.246 0 1 1 2.491 0 1.246 1.246 0 0 1-2.491 0Z"/></g></symbol><symbol id="icon-login"><g fill="currentColor"><path d="M8 1.525c0-.369.298-.667.667-.667h2.666a2 2 0 0 1 2 2v9.333a2 2 0 0 1-2 2H8.667a.667.667 0 1 1 0-1.333h2.666A.666.666 0 0 0 12 12.19V2.858a.666.666 0 0 0-.667-.667H8.667A.667.667 0 0 1 8 1.525ZM4.862 3.72c.26-.26.682-.26.943 0l3.329 3.329a.673.673 0 0 1 .2.476.664.664 0 0 1-.2.475l-3.33 3.33a.667.667 0 1 1-.942-.944l2.195-2.195H.667a.667.667 0 1 1 0-1.333h6.39L4.862 4.663a.667.667 0 0 1 0-.943Z"/></g></symbol><symbol id="icon-pagination"><g fill="currentColor"><path fill-rule="evenodd" clip-rule="evenodd" d="M1.135.865a.665.665 0 1 0-.94.94l4.201 4.201-4.201 4.202a.665.665 0 0 0 .94.94L5.804 6.48a.665.665 0 0 0 .003-.943L1.135.865Z"/></g></symbol><symbol id="icon-search"><g fill="currentColor"><path fill-rule="evenodd" clip-rule="evenodd" d="M1.663 6.188a4.667 4.667 0 1 1 8.028 3.238.672.672 0 0 0-.123.123 4.667 4.667 0 0 1-7.904-3.361Zm8.412 4.688a6 6 0 1 1 .943-.943l2.45 2.45a.667.667 0 1 1-.943.943l-2.45-2.45Z"/></g></symbol><symbol id="icon-telegram"><g fill="currentColor"><path d="M24 12c0 6.627-5.373 12-12 12S0 18.627 0 12 5.373 0 12 0s12 5.373 12 12ZM12.43 8.859c-1.167.485-3.5 1.49-6.998 3.014-.568.226-.866.447-.893.663-.046.366.412.51 1.034.705.085.027.173.054.263.084.613.199 1.437.432 1.865.441.389.008.823-.152 1.302-.48 3.268-2.207 4.955-3.322 5.061-3.346.075-.017.179-.039.249.024.07.062.063.18.056.212-.046.193-1.84 1.862-2.77 2.726-.29.269-.495.46-.537.504-.094.097-.19.19-.282.279-.57.548-.996.96.024 1.632.49.323.882.59 1.273.856.427.291.853.581 1.405.943.14.092.274.187.405.28.497.355.944.673 1.496.623.32-.03.652-.331.82-1.23.397-2.126 1.179-6.73 1.36-8.628a2.112 2.112 0 0 0-.02-.472.506.506 0 0 0-.172-.325c-.143-.117-.365-.142-.465-.14-.451.008-1.143.249-4.476 1.635Z"/></g></symbol><symbol id="icon-vk"><g fill="currentColor"><path fill-rule="evenodd" clip-rule="evenodd" d="M24 12c0 6.627-5.373 12-12 12S0 18.627 0 12 5.373 0 12 0s12 5.373 12 12Zm-11.412 2.975h-.717s-1.582.083-2.976-1.188c-1.52-1.388-2.863-4.14-2.863-4.14s-.077-.18.007-.268c.095-.098.352-.104.352-.104l1.715-.01s.161.024.277.098c.095.062.149.176.149.176s.277.615.644 1.17c.716 1.085 1.05 1.322 1.293 1.206.354-.17.248-1.533.248-1.533s.007-.496-.178-.716c-.143-.17-.414-.22-.533-.235-.096-.011.062-.207.267-.295.309-.133.854-.14 1.498-.135.501.005.645.032.842.074.455.096.44.405.41 1.07-.01.2-.02.43-.02.697 0 .06-.002.124-.004.19-.01.34-.023.73.233.876.132.074.453.011 1.256-1.185.381-.566.667-1.233.667-1.233s.062-.119.16-.17c.098-.051.232-.036.232-.036l1.805-.01s.542-.056.63.158c.091.226-.203.751-.94 1.612-.696.813-1.036 1.115-1.01 1.38.02.196.242.372.67.72.888.722 1.124 1.101 1.18 1.192a.447.447 0 0 0 .011.016c.398.578-.44.623-.44.623l-1.603.02s-.345.06-.798-.214c-.237-.142-.469-.375-.69-.597-.337-.339-.649-.652-.915-.578-.447.124-.433.967-.433.967s.004.18-.098.277c-.11.104-.328.125-.328.125Z"/></g></symbol><symbol id="icon-youtube"><g fill="currentColor"><path d="m14.004 11.791-2.808-1.31c-.245-.114-.446.014-.446.285v2.468c0 .271.201.399.446.285l2.806-1.31c.247-.115.247-.303.002-.418ZM12 0C5.372 0 0 5.372 0 12s5.372 12 12 12 12-5.372 12-12S18.628 0 12 0Zm0 16.875c-6.143 0-6.25-.554-6.25-4.875S5.857 7.125 12 7.125c6.142 0 6.25.554 6.25 4.875s-.108 4.875-6.25 4.875Z"/></g></symbol><symbol id="logo-htmlacademy"><g fill="currentColor"><path d="M0 10.416v2.083h1.988v-2.083H0ZM9.419 3.663c-1.262 0-2.282.573-2.922 1.406h-.069V0H4.786v12.5h1.642V8.212c0-1.72 1.072-2.952 2.645-2.952 1.486 0 2.35 1.111 2.35 2.604V12.5h1.643V7.57c0-2.38-1.47-3.907-3.647-3.907ZM21.525 3.906h-3.889V.868h-1.642v3.038H14.44v1.597h1.555v4.844c0 1.389.778 2.153 2.178 2.153h3.353v-1.615h-3.024c-.554 0-.865-.312-.865-.85V5.503h3.89V3.906ZM33.255 3.68c-1.314 0-2.316.643-2.87 1.667h-.051c-.502-1.007-1.435-1.666-2.714-1.666-1.14 0-2.005.607-2.523 1.458h-.07V3.906h-1.572V12.5h1.642V8.09c0-1.614.846-2.795 2.126-2.83 1.21-.034 1.918.834 1.918 2.136V12.5h1.642V7.95c0-1.927 1.14-2.69 2.126-2.69 1.193 0 1.901.833 1.901 2.135V12.5h1.642V7.222c0-2.083-1.175-3.541-3.197-3.541ZM38.678 10.277c0 1.407.795 2.223 2.264 2.223h1.624v-1.598h-1.382c-.553 0-.865-.312-.865-.85V0h-1.641v10.277ZM23.375 15.936h-.069c-.64-.863-1.68-1.467-3.065-1.484-2.545-.034-4.363 1.847-4.363 4.505 0 2.675 1.852 4.556 4.346 4.521 1.42-.017 2.441-.655 3.082-1.57h.07v1.329h1.627v-8.543h-1.628v1.242Zm-2.909 5.955c-1.8 0-2.943-1.312-2.943-2.934 0-1.623 1.143-2.934 2.943-2.934 1.75 0 2.892 1.311 2.892 2.934 0 1.605-1.143 2.934-2.892 2.934ZM35.752 17.8c-.398-1.933-2.113-3.348-4.363-3.348-2.719 0-4.537 1.985-4.537 4.505 0 2.52 1.818 4.521 4.537 4.521 2.25 0 3.965-1.45 4.363-3.4h-1.714c-.346 1.088-1.368 1.83-2.632 1.83-1.766 0-2.91-1.33-2.91-2.951 0-1.623 1.144-2.934 2.91-2.934 1.316 0 2.285.776 2.632 1.777h1.714ZM44.546 15.936h-.07c-.64-.863-1.679-1.467-3.064-1.484-2.546-.034-4.364 1.847-4.364 4.505 0 2.675 1.853 4.556 4.346 4.521 1.42-.017 2.442-.655 3.083-1.57h.069v1.329h1.627v-8.543h-1.627v1.242Zm-2.91 5.955c-1.8 0-2.943-1.312-2.943-2.934 0-1.623 1.143-2.934 2.944-2.934 1.749 0 2.892 1.311 2.892 2.934 0 1.605-1.143 2.934-2.892 2.934ZM55.52 16.023h-.07c-.64-.915-1.714-1.554-3.081-1.57-2.494-.035-4.346 1.846-4.346 4.52 0 2.659 1.818 4.54 4.363 4.506 1.35-.018 2.424-.622 3.048-1.485h.086v1.243h1.628V10.81H55.52v5.212Zm-2.909 5.885c-1.8 0-2.944-1.312-2.944-2.934s1.143-2.934 2.944-2.934c1.75 0 2.892 1.329 2.892 2.934 0 1.622-1.143 2.934-2.892 2.934ZM63.345 14.452c-2.632 0-4.433 2.02-4.433 4.522 0 2.433 1.697 4.505 4.467 4.505 2.009 0 3.62-1.088 4.19-2.9h-1.713c-.381.811-1.299 1.329-2.407 1.329-1.558 0-2.667-1.036-2.788-2.364h7.082c.225-2.848-1.558-5.092-4.398-5.092Zm-.035 1.57c1.368 0 2.39.846 2.65 2.072h-5.264c.242-1.208 1.264-2.071 2.614-2.071ZM79.413 14.47c-1.316 0-2.32.638-2.875 1.656h-.052c-.502-1-1.437-1.657-2.718-1.657-1.143 0-2.009.604-2.528 1.45h-.07v-1.225h-1.575v8.543h1.645v-4.384c0-1.605.848-2.779 2.13-2.813 1.212-.035 1.922.828 1.922 2.123v5.074h1.645v-4.522c0-1.916 1.142-2.675 2.13-2.675 1.194 0 1.904.828 1.904 2.123v5.074h1.645V17.99c0-2.071-1.177-3.52-3.203-3.52ZM88.505 21.873l-2.944-7.18h-1.818l3.913 9.355-.017.034c-.277.708-.589.967-1.35.967h-2.026v1.64h2.025c1.49 0 2.286-.674 2.84-2.124l3.775-9.872h-1.68l-2.718 7.18Z"/></g></symbol></svg>